<?xml version="1.0" encoding="utf-8"?>
<!-- Generator: Adobe Illustrator 16.0.0, SVG Export Plug-In . SVG Version: 6.00 Build 0)  -->
<!DOCTYPE svg PUBLIC "-//W3C//DTD SVG 1.1//EN" "http://www.w3.org/Graphics/SVG/1.1/DTD/svg11.dtd">
<svg version="1.1" id="Calque_1" xmlns="http://www.w3.org/2000/svg" xmlns:xlink="http://www.w3.org/1999/xlink" x="0px" y="0px"
	 width="432px" height="432px" viewBox="0 0 432 432" enable-background="new 0 0 432 432" xml:space="preserve">
<g>
	<g>
		<path fill="#BE1622" d="M122.256,260.461c-3.132-4.028-6.211-7.989-9.281-11.937c-0.548,0.209-0.28,0.442,0.447,8.926
			c0.433,5.048,1.218,22.892,1.946,36.813c0.343,0.16,0.677,0.042,0.996,0.059c3.49,0.194,3.439,4.869,0.188,5.213
			c-8.525,0.902-17.171,1.908-21.07,1.823c-3.238-0.07-3.507-4.454-0.471-5.054c1.995-0.394,2.004,0.072,2.046-1.014
			c0.296-7.745-2.012-45.17-7.271-69.702c-0.822,0.064-1.517,0.412-2.24,0.63c-0.897,0.272-1.799,0.504-2.72,0.667
			c-3.891,0.687-4.621-4.375-1.351-5.054c7.063-1.466,15.414-5.284,17.275-4.813c2.695,0.682,2.674,4.423,0.021,5.13
			c-1.312,0.349-0.796-0.014-3.148,0.872c0.032,0.101,0.034,0.181,0.075,0.223c12.896,13.44,29.744,35.081,29.744,35.081
			c1.921-1.588,22.198-35.82,22.286-36.549c-1.789-0.193-2.709,0.164-4.021,0.159c-3.557-0.014-3.804-4.784-0.275-5.169
			c3.18-0.347,11.902-0.654,15.036-0.204c1.713,0.246,2.793,1.763,2.393,3.302c-0.421,1.619-2.094,2.526-3.698,1.927
			c-0.692-0.259-1.377-0.195-2.071-0.242c-0.837-0.057-0.762-2.562,1.94,35.616c1.733,24.492,4.784,43.271,4.784,43.271
			c-0.147,2.515-3.424,3.324-4.733,1.162c-2.523-4.167-6.963-68.147-7.217-72.614c-0.476,0.18-0.569,0.597-0.753,0.905
			c-16.927,28.329-13.492,22.814-18.061,29.719c0.341,0.223,0.666,0.083,0.973,0.069c3.34-0.143,3.9,4.264,0.731,5.059
			c-2.257,0.566-9.061,0.725-11.396,0.815c-2.693,0.104-3.823-3.049-1.865-4.595C121.703,260.791,121.939,260.665,122.256,260.461z
			 M95.809,229.047c0.107,0.837,2.346,10.748,4.448,32.58c0.378,3.928,2.23,25.342,2.03,33.459c-0.022,0.879-0.69,0.831,7.158-0.038
			c0.837-0.093,0.743-0.172,0.666-1.725c-0.437-8.794-2.131-42.5-3.182-51.296c-0.133-1.117-0.113-0.907-4.614-6.042
			C100.243,233.621,98.138,231.286,95.809,229.047z"/>
		<path fill="#BE1622" d="M175.035,297.534c-5.35-26.827,1.769-75.577,27.101-78.815c23.315-2.98,24.381,54.561,27.434,77.806
			c0.153,1.169,1.103,0.454,3.159,0.861c3.373,0.668,2.899,5.298-0.613,5.112c-10.961-0.582-12.155,1.068-13.195-1.412
			c-0.495-1.18-0.053-2.529,1.088-3.229c1.176-0.722,2.121-0.683,3.893-0.667c0.722,0.007,0.427-0.131-0.104-6.896
			c-0.034-0.427-0.224-0.582-0.643-0.551c-30.984,2.291-31.929-0.605-31.687,1.883c0.149,1.532,0.364,3.055,0.645,4.568
			c0.138,0.74,0.162,0.735,0.965,0.717c3.524-0.08,3.746,4.688,0.524,5.145c-4.146,0.588-12.569,0.164-19.248,0.789
			c-2.941,0.275-3.999-4.202-0.616-5.046C174.154,297.693,174.579,297.625,175.035,297.534z M222.835,284.562
			c0.351-0.026,0.468-0.176,0.438-0.503c-1.343-14.438-4.461-45.679-13.094-56.747c-0.61-0.782-0.654-0.788-1.233-0.048
			c-10.74,13.708-17.424,38.058-17.826,57.488c-0.015,0.715,0.029,0.743,0.725,0.732
			C221.631,285.012,206.742,285.732,222.835,284.562z M204.849,223.988c-1.734-0.833-8.651,0.583-14.207,7.791
			c-13.035,16.911-13.883,52.779-10.393,64.991c0.239,0.837,0.242,0.607,5.754,0.435c0.294-0.009,0.605,0.071,0.9-0.128
			C186.904,296.239,180.256,260.375,204.849,223.988z"/>
		<path fill="#BE1622" d="M247.946,296.815c0,0-0.679-8.155-1.049-14.591c-0.938-16.286-1.979-60.956-5.945-60.555
			c-0.604,0.061-1.179,0.211-1.763,0.36c-3.551,0.901-4.874-4.268-1.138-5.137c5.695-1.326,19.304-0.82,25.633,0.631
			c16.825,3.857,27.221,15.804,29.881,33.081c2.302,14.945-1.693,30.677-13.861,41.518c-12.472,11.112-35.505,13.722-35.862,7.291
			c-0.073-1.328,0.939-2.478,2.28-2.589C246.684,296.776,247.254,296.815,247.946,296.815z M265.887,294.384
			c12.645-4.944,21.441-16.079,22.861-31.732c1.585-17.479-5.675-33.823-23.636-39.417c-1.226-0.382-2.467-0.714-3.751-0.828
			c-0.026,0.138-0.058,0.205-0.047,0.265C262.506,229.183,264.437,289.311,265.887,294.384z M246.902,221.344
			c4.774,16.267,3.643,49.324,6.323,75.59c0.032,0.316-0.003,0.703,0.527,0.659c2.204-0.182,4.369-0.561,6.484-1.213
			c0.422-0.13,0.557-0.337,0.496-0.801c-2.298-17.44-3.474-73.775-5.283-73.907C252.622,221.466,249.519,221.138,246.902,221.344z"
			/>
		<path fill="#BE1622" d="M335.462,301.201c-8.835,0-25.58,0.459-29.555,1.535c-4.583,1.24-5.696-3.986-2.397-4.964
			c0.748-0.222,1.531-0.091,2.282-0.3c0.839-0.233,0.854-0.202,0.853-1.09c-0.042-22.777,0.172-46.397-1.615-70.356
			c-0.066-0.883-0.618-0.495-2.111-0.399c-3.396,0.218-3.937-4.567-0.484-5.169c2.342-0.409,35.271-1.416,44.236-1.188
			c1.967,0.05,2.919,1.181,3.087,2.198c0.347,2.1,1.271,5.5,0.651,7.015c-1.209,2.958-5.641,1.869-5.11-1.296
			c0.126-0.755-0.081-1.463-0.134-2.191c-0.08-1.084-1.413-0.702-21.639-0.159c-0.477,0.013-0.643,0.143-0.593,0.645
			c0.805,8.144,1.386,47.433,1.386,47.433c0.353,0.411,0.938-0.001,1.423-0.02c2.273-0.083,4.526-0.408,6.788-0.624
			c0.525-0.05,0.732-0.177,0.716-0.788c-0.082-3.178,4.228-3.666,5.031-0.774c0.582,2.092,1.112,4.203,1.535,6.332
			c0.704,3.54-4.281,4.543-5.047,1.224c-0.368-1.595,0.69-0.906-10.04-0.011c-0.605,0.051-0.528,0.367-0.532,0.959
			c-0.108,18.471-0.392,16.953,0.597,16.913c24.216-0.985,20.012,1.618,20.403-2.686c0.271-2.983,4.477-3.121,5.038-0.281
			c0.323,1.634,0.136,3.116,0.072,4.506c-0.2,4.371-3.357,3.487-14.838,3.487C335.462,301.168,335.462,301.185,335.462,301.201z
			 M317.729,225.615c-0.023-0.3-0.021-0.633-0.472-0.597c-2.11,0.169-4.27-0.356-6.333,0.516c-1.162,0.491-0.57-0.124-0.297,5.014
			c1.664,31.352,1.137,60.84,1.224,65.539c0.023,1.247-0.098,0.34,6.173,0.276c0.859-0.009,0.867-0.021,0.871-0.896
			C318.899,294.198,319.518,249.278,317.729,225.615z"/>
	</g>
	<g>
		<path fill="#29235C" d="M232.813,197.988c-0.765,0.989-1.693,1.813-2.715,2.515c-1.103,0.758-1.522,0.858-2.488-0.421
			c-5.181-6.864,0.407-32.352-4.195-39.97c-3.163-5.236-9.697-2.977-16.518-1.003c-0.817,0.237-0.797-0.274-1.034-1.072
			c-1.185-3.981-3.482-7.882-7.095-9.533c-10.214-4.668-15.288,17.763,2.481,17c0.818-0.035,0.832-0.018,0.905,0.796
			c1.28,14.21-9.326,30.521-19.214,33.649c-3.563,1.127-7.086,0.454-11.009-6.299c-2.793-4.808-4.58-10.415-5.317-15.774
			c-0.125-0.911-0.208-0.743,2.224-1.187c11.351-2.071,12.271-2.188,14.042-2.769c8.081-2.647,2.181-13.572-3.313-18.492
			c-3.087-2.764-8.02-4.127-11.908-0.644c-3.739,3.35-7.618,12.209-6.193,23.684c1.479,11.91,10.701,37.31,30.15,22.635
			c5.933-4.477,17.368-18.539,15.609-36.042c-0.047-0.471,0.046-0.727,0.546-0.856c7.006-1.811,10.648-3.374,11.472-0.863
			c2.07,6.305-0.009,22.549,1.127,30.923c1.647,12.144,8.2,13.86,12.804,10.444c1.094-0.812,3.643-2.902,4.138-4.291
			C238.329,197.556,234.762,195.467,232.813,197.988z M195.627,153.368c1.009-1.245,4.683,2.542,5.397,6.916
			C194.302,161.031,193.699,155.745,195.627,153.368z M166.445,171.125c0.647-6.655,3.453-13.153,6.439-13.215
			c3.266-0.066,6.817,5.1,8.027,8.237c0.978,2.535,0.928,2.726,0.091,2.928c-2.985,0.724-4.269,0.896-13.856,2.647
			C166.412,171.857,166.375,171.849,166.445,171.125z"/>
		<path fill="#29235C" d="M148.253,159.833c-5.388-2.495-10.621,0.111-14.428,4.546c-0.453,0.527-0.89,1.067-1.4,1.68
			c-10.831-17.107-22.659-6.434-26.427,15.012c-0.108,0.614-0.111,1.257-0.441,2.033c-0.477-1.743,0.515,2.229-5.998-24.451
			c-0.755-3.093-4.974-2.458-5.075,0.517c-0.028,0.838,9.504,39.635,10.97,44.475c0.913,3.015,5.093,2.499,5.101-0.813
			c0.002-0.842-2.7-24.329,6.535-37.05c1.618-2.229,3.29-3.697,5.714-2.459c1.771,0.905,4.111,3.047,6.25,7.514
			c0.195,0.406,0.072,0.691-0.093,1.024c-2.841,5.726-4.205,11.818-4.437,18.178c-0.522,14.292,7.026,17.48,11.117,12.177
			c4.937-6.4,2.563-21.772-0.452-30.078c-0.145-0.399-0.094-0.688,0.12-1.024c3.957-6.222,9.1-9.968,13.668-4.22
			c6.763,8.509,7.23,32.479,6.893,36.126c-0.298,3.215,5.51,4.585,5.417-0.632C161.054,189.229,159.789,165.175,148.253,159.833z
			 M131.386,199.201c-3.387-5.502-0.806-18.231,0.348-20.199C132.445,180.091,135.023,194.985,131.386,199.201z"/>
		<path fill="#29235C" d="M293.229,153.351c-7.013,3.992-1.448,9.002,1.17,5.777c2.624-3.232,17.089-8.81,24.197,6.061
			c2.327,4.87,3.327,11.883,3.219,14.512c-0.809-0.837-2.111-4.264-6.129-6.765c-7.87-4.899-16.774-1.249-20.153,7.481
			c-1.701,4.393-2.223,11.91-0.696,17.404c3.491,12.561,17.141,10.683,24.277,5.835c0.352-0.239,0.67-0.55,1.189-0.676
			c-0.083,1.254-0.18,1.681,0.107,2.52c0.807,2.359,4.521,2.628,5.156-0.955C334.044,156.7,311.398,143.01,293.229,153.351z
			 M306.672,202.124c-5.78-0.166-7.234-4.875-7.553-10.652c-0.047-5.047,0.652-10.469,4.169-13.528
			c3.697-3.216,9.045-2.709,12.698,2.384c2.397,3.343,3.455,7.452,4.246,13.952C320.509,196.548,314.768,202.355,306.672,202.124z"
			/>
		<path fill="#29235C" d="M376.206,163.693c-4.919-20.809-27.381-12.814-35.439,11.147c-0.124,0.367-0.171,0.774-0.537,1.228
			c-1.513-14.704-2.189-20.596-3.194-22.168c-1.197-1.874-3.755-1.649-4.589,0.311c-0.468,1.102,0.074,2.042,0.382,3.622
			c0.569,2.914,4.759,41.881,5.96,45.65c1.057,3.313,5.465,2.444,5.108-1.04c-0.19-1.859-1.282-5.993-0.988-11.367
			c1.44-26.325,20.022-40.626,26.187-31.23c4.665,7.111,3.789,26.527,3.335,34.266c-0.919,15.671-3.213,16.486,0.895,17.196
			c1.207,0.208,3.215-0.41,3.404-3.42C377.683,192.716,379.271,176.662,376.206,163.693z"/>
		<path fill="#29235C" d="M56.038,164.14c-3.931,10.26-1.55,20.618,1.882,30.979c0.605,1.826,3.101,8.944,4.712,10.088
			c2.401,1.704,5.316-1.031,3.71-3.434c-0.752-1.125-1.2-2.386-1.733-3.608c-0.398-0.912-2.098-0.521,20.525-3.93
			c0.927-0.14,0.938-0.871,0.116,8.77c-0.164,1.921-0.98,5.482,2.146,5.749c1.355,0.116,2.65-0.793,2.847-3.065
			c0.549-6.356,1.027-11.905,0.878-18.185C89.433,143.916,62.84,146.387,56.038,164.14z M71.51,191.031
			c-2.962,0.464-5.939,0.849-8.898,1.584c-0.541-1.19-2.325-7.168-2.93-11.147c-4.41-29.019,25.315-37.329,26.236,6.492
			C85.948,189.389,87.591,188.514,71.51,191.031z"/>
		<path fill="#29235C" d="M284.607,192.049c-0.79,1.877-7.869,12.526-13.273,9.055c-14.181-9.109-7.593-49.945,1.084-44.916
			c5,2.897,4.382,6.767,4.521,7.9c0.369,3,5.201,3.402,5.171-1.09c-0.052-7.932-9.296-16.324-16.375-10.364
			c-8.771,7.385-11.969,35.545-0.755,49.52c11.204,13.964,24.056-6.033,24.607-8.453
			C290.291,190.619,285.937,188.894,284.607,192.049z"/>
		<path fill="#BE1622" d="M250.661,133.958c-1.058,0.2-2.137,0.154-3.193,0.311c-0.496,0.074-0.74-0.096-0.955-0.499
			c-2.89-5.427-5.723-5.423-7.475-3.608c-0.808,0.837-1.124,1.912-1.561,4.684c-0.132,0.837,0.001,0.567-6.832,1.465
			c-2.617,0.344-3.327,3.508-1.164,4.974c0.759,0.515,1.266,0.567,5.449,1.97c0.915,0.307,0.826-0.297-1,6.128
			c-0.238,0.838-0.806,2.325,0.135,3.659c0.979,1.39,3.179,1.492,4.347-0.184c1.448-2.079,3.323-3.743,5.192-5.419
			c0.837-0.751,1.044-0.196,4.551,1.903c0.602,0.36,1.209,0.714,1.89,0.914c1.906,0.56,3.632-0.824,3.5-2.797
			c-0.06-0.89-0.366-1.404-2.127-4.837c-0.636-1.24-0.636-1.236,0.453-2.136c1.614-1.335,3.633-2.766,2.646-4.944
			C253.83,134.026,252.192,133.667,250.661,133.958z"/>
		<path fill="#29235C" d="M248.596,161.373c-0.103-1.226-0.336-2.456-0.039-3.694c0.059-0.245-0.008-0.536-0.076-0.791
			c-0.658-2.478-4.105-2.625-5.076-0.182c-0.719,1.81,0.357,3.378,0.93,21.621c0.234,7.46,0.6,14.913,1.54,22.326
			c0.176,1.389,0.423,2.768,0.331,4.188c-0.167,2.579,4.031,4.247,5.211,1.152c0.167-0.438,0.266-0.899,0.216-1.38
			C248.809,182.517,250.069,178.989,248.596,161.373z"/>
	</g>
</g>
</svg>
